<svg xmlns="http://www.w3.org/2000/svg" width="370" height="115" viewBox="-5 -5 360 110"><path d="M299.9 74.501h8.9a3.015 3.015 0 0 1 .801.102 2.441 2.441 0 0 1 .749.348q.65.45 1.05 1.65 1.1 2.6 3.3 4.45 1.569 1.319 4.36 1.698a18.217 18.217 0 0 0 2.44.152 21.646 21.646 0 0 0 3.122-.21q3.666-.536 5.678-2.44a7.494 7.494 0 0 0 1.747-2.641q1.053-2.562 1.053-6.609v-6.8q-5.4 6.4-15.3 6.4-8.411 0-13.453-4.121a16.195 16.195 0 0 1-2.197-2.179 22.611 22.611 0 0 1-4.167-7.856q-.969-3.112-1.319-6.812a44.144 44.144 0 0 1-.164-2.532l-.1-2.7.1-2.7q.351-9.39 4.476-15.546a21.966 21.966 0 0 1 1.224-1.654 17.076 17.076 0 0 1 9.856-5.912 26.462 26.462 0 0 1 5.744-.588 23.872 23.872 0 0 1 4.683.439 18.284 18.284 0 0 1 4.617 1.561q4 2 6.6 5.4v-3.9a2.633 2.633 0 0 1 .144-.886 2.281 2.281 0 0 1 .606-.914q.75-.7 1.75-.7h8.2a2.312 2.312 0 0 1 1.678.678 2.755 2.755 0 0 1 .022.022 2.363 2.363 0 0 1 .686 1.494 3.207 3.207 0 0 1 .014.306l.1 48.2a31.93 31.93 0 0 1-.7 6.893q-1.383 6.256-5.5 10.307a19.372 19.372 0 0 1-7.484 4.478q-3.056 1.039-6.8 1.412a44.536 44.536 0 0 1-4.416.21q-8.9 0-14.4-2.95a28.205 28.205 0 0 1-3.403-2.129q-1.714-1.263-2.943-2.656a13.684 13.684 0 0 1-1.454-1.965 22.683 22.683 0 0 1-1.163-2.16q-1.137-2.442-1.137-4.34a2.336 2.336 0 0 1 .154-.861 2.134 2.134 0 0 1 .546-.789q.7-.65 1.7-.65zM0 68.601v-66.2a2.8 2.8 0 0 1 .099-.762A2.1 2.1 0 0 1 .7.651q.7-.65 1.7-.65h8.3a2.312 2.312 0 0 1 1.678.678 2.755 2.755 0 0 1 .022.022 2.311 2.311 0 0 1 .7 1.668 2.839 2.839 0 0 1 0 .032v34.2l16.6-15.9q.3-.2.95-.75.526-.446 1.02-.662a2.725 2.725 0 0 1 .23-.088q.467-.156 1.114-.19a7.237 7.237 0 0 1 .386-.01h9.5q1 0 1.6.6a2.008 2.008 0 0 1 .558 1.097 2.864 2.864 0 0 1 .042.503 1.812 1.812 0 0 1-.22.843q-.147.283-.393.566a4.518 4.518 0 0 1-.387.391l-20.4 19.3 22.9 24.8a4.519 4.519 0 0 1 .435.497q.465.627.465 1.203a2.705 2.705 0 0 1-.084.693 1.97 1.97 0 0 1-.516.907 2.024 2.024 0 0 1-1.442.599 2.657 2.657 0 0 1-.058.001h-9.7q-1.181 0-1.829-.25a1.927 1.927 0 0 1-.221-.1q-.65-.35-1.65-1.35l-18.9-20.1v19.4a2.312 2.312 0 0 1-.678 1.678 2.755 2.755 0 0 1-.022.022 2.311 2.311 0 0 1-1.669.699 2.839 2.839 0 0 1-.031.001H2.4a2.312 2.312 0 0 1-1.678-.679 2.755 2.755 0 0 1-.022-.021 2.311 2.311 0 0 1-.7-1.669 2.839 2.839 0 0 1 0-.031zm72.3-28.6l13.7-2v-2.1a13.407 13.407 0 0 0-.215-2.483q-.264-1.399-.852-2.489a6.546 6.546 0 0 0-1.133-1.528 6.624 6.624 0 0 0-2.423-1.504q-1.048-.389-2.354-.561a17.091 17.091 0 0 0-2.223-.135q-2.412 0-4.129.641a7.083 7.083 0 0 0-1.171.559 21.405 21.405 0 0 0-1.554 1.021q-.73.529-1.319 1.068a11.742 11.742 0 0 0-.377.361l-1.65 1.65a2.319 2.319 0 0 1-.262.552q-.43.648-1.238.648h-7.8q-.9 0-1.55-.6t-.65-1.6a6.967 6.967 0 0 1 .422-2.053q.316-.891.869-1.851a17.761 17.761 0 0 1 1.159-1.746 14.568 14.568 0 0 1 2.544-2.604q1.95-1.575 4.706-2.896 4.249-2.038 10.228-2.309a41.402 41.402 0 0 1 1.872-.041 41.699 41.699 0 0 1 6.131.419q3.145.469 5.657 1.461a16.017 16.017 0 0 1 5.412 3.42 17.777 17.777 0 0 1 5.206 10.759 24.671 24.671 0 0 1 .194 3.141v31.4q0 1-.65 1.7a2.151 2.151 0 0 1-1.306.668 3.054 3.054 0 0 1-.444.032h-8.3a2.312 2.312 0 0 1-1.678-.679 2.755 2.755 0 0 1-.022-.021 2.311 2.311 0 0 1-.7-1.669 2.839 2.839 0 0 1 0-.031v-3.9a15.283 15.283 0 0 1-3.869 3.851 19.678 19.678 0 0 1-2.331 1.399 17.333 17.333 0 0 1-4.189 1.471q-1.968.434-4.252.542a32.868 32.868 0 0 1-1.559.037 22.067 22.067 0 0 1-6.611-.969 20.038 20.038 0 0 1-2.739-1.081 18.249 18.249 0 0 1-4.312-2.855 15.825 15.825 0 0 1-2.388-2.695q-2.45-3.5-2.45-7.7a13.533 13.533 0 0 1 1.418-6.236q1.375-2.697 4.082-4.764 4.437-3.388 11.541-5.019a51.312 51.312 0 0 1 3.559-.681zm100.3 0l13.7-2v-2.1a13.407 13.407 0 0 0-.215-2.483q-.264-1.399-.852-2.489a6.546 6.546 0 0 0-1.133-1.528 6.624 6.624 0 0 0-2.423-1.504q-1.048-.389-2.354-.561a17.091 17.091 0 0 0-2.223-.135q-2.412 0-4.129.641a7.083 7.083 0 0 0-1.171.559 21.405 21.405 0 0 0-1.554 1.021q-.73.529-1.319 1.068a11.742 11.742 0 0 0-.377.361l-1.65 1.65a2.319 2.319 0 0 1-.262.552q-.43.648-1.238.648h-7.8q-.9 0-1.55-.6t-.65-1.6a6.967 6.967 0 0 1 .422-2.053q.316-.891.869-1.851a17.761 17.761 0 0 1 1.159-1.746 14.568 14.568 0 0 1 2.544-2.604q1.95-1.575 4.706-2.896 4.249-2.038 10.228-2.309a41.402 41.402 0 0 1 1.872-.041 41.699 41.699 0 0 1 6.131.419q3.145.469 5.657 1.461a16.017 16.017 0 0 1 5.412 3.42 17.777 17.777 0 0 1 5.206 10.759 24.671 24.671 0 0 1 .194 3.141v31.4q0 1-.65 1.7a2.151 2.151 0 0 1-1.306.668 3.054 3.054 0 0 1-.444.032h-8.3a2.312 2.312 0 0 1-1.678-.679 2.755 2.755 0 0 1-.022-.021 2.311 2.311 0 0 1-.7-1.669 2.839 2.839 0 0 1 0-.031v-3.9a15.283 15.283 0 0 1-3.869 3.851 19.678 19.678 0 0 1-2.331 1.399 17.333 17.333 0 0 1-4.189 1.471q-1.968.434-4.252.542a32.868 32.868 0 0 1-1.559.037 22.067 22.067 0 0 1-6.611-.969 20.038 20.038 0 0 1-2.739-1.081 18.249 18.249 0 0 1-4.312-2.855 15.825 15.825 0 0 1-2.388-2.695q-2.45-3.5-2.45-7.7a13.533 13.533 0 0 1 1.418-6.236q1.375-2.697 4.082-4.764 4.437-3.388 11.541-5.019a51.312 51.312 0 0 1 3.559-.681zm-55 12.3v-22.6h-7.9a2.312 2.312 0 0 1-1.678-.679 2.755 2.755 0 0 1-.022-.021 2.311 2.311 0 0 1-.7-1.669 2.839 2.839 0 0 1 0-.031v-5.9a2.312 2.312 0 0 1 .678-1.678 2.755 2.755 0 0 1 .022-.022 2.311 2.311 0 0 1 1.669-.7 2.839 2.839 0 0 1 .031 0h7.9v-16.6a2.8 2.8 0 0 1 .099-.762 2.1 2.1 0 0 1 .601-.988q.7-.65 1.7-.65h8.3a3.009 3.009 0 0 1 .755.089 2.135 2.135 0 0 1 .995.561 2.17 2.17 0 0 1 .596 1.151 3.144 3.144 0 0 1 .054.599v16.6h12.5a2.312 2.312 0 0 1 1.678.678 2.755 2.755 0 0 1 .022.022 2.311 2.311 0 0 1 .7 1.668 2.839 2.839 0 0 1 0 .032v5.9a2.312 2.312 0 0 1-.678 1.678 2.755 2.755 0 0 1-.022.022 2.311 2.311 0 0 1-1.669.699 2.839 2.839 0 0 1-.031.001h-12.5v21.5a19.753 19.753 0 0 0 .132 2.368q.313 2.585 1.368 4.132a4.805 4.805 0 0 0 2.873 1.963q.84.218 1.854.235a10.287 10.287 0 0 0 .173.002h7a3.009 3.009 0 0 1 .755.089 2.135 2.135 0 0 1 .995.561 2.17 2.17 0 0 1 .596 1.151 3.144 3.144 0 0 1 .054.599v6.3q0 1-.65 1.7a2.151 2.151 0 0 1-1.306.668 3.054 3.054 0 0 1-.444.032h-8.2q-6.351 0-10.51-2.314a13.641 13.641 0 0 1-3.19-2.436 15.102 15.102 0 0 1-3.486-5.972q-1.114-3.45-1.114-7.978zm119.6-2.9l-.1-4.4.1-4.4a28.958 28.958 0 0 1 1.219-7.25 20.98 20.98 0 0 1 5.781-9.3 21.454 21.454 0 0 1 9.073-4.933q4.043-1.117 9.027-1.117 9.348 0 15.392 3.997a20.075 20.075 0 0 1 2.608 2.053 21.379 21.379 0 0 1 6.278 11.14 30.516 30.516 0 0 1 .722 5.41q.1 1.2.1 4.4a161.461 161.461 0 0 1-.006 1.432q-.018 2.058-.094 2.968-.5 10.6-6.9 16.6-6.4 6-18.1 6a37.212 37.212 0 0 1-7.162-.646q-4.159-.817-7.388-2.665a19.401 19.401 0 0 1-3.65-2.689 21.104 21.104 0 0 1-6.011-10.425 30.742 30.742 0 0 1-.889-6.175zm-24.5 19.2v-66.2a2.8 2.8 0 0 1 .099-.762 2.1 2.1 0 0 1 .601-.988q.7-.65 1.7-.65h8.4a3.009 3.009 0 0 1 .755.089 2.135 2.135 0 0 1 .995.561 2.17 2.17 0 0 1 .596 1.151 3.144 3.144 0 0 1 .054.599v66.2q0 1-.65 1.7a2.151 2.151 0 0 1-1.306.668 3.054 3.054 0 0 1-.444.032h-8.4a2.312 2.312 0 0 1-1.678-.679 2.755 2.755 0 0 1-.022-.021 2.311 2.311 0 0 1-.7-1.669 2.839 2.839 0 0 1 0-.031zm38.3-27.5l-.1 3.9.1 3.9a23.52 23.52 0 0 0 .389 3.697q.37 1.925 1.079 3.461a10.472 10.472 0 0 0 1.632 2.542 9.446 9.446 0 0 0 5.391 3.035 14.164 14.164 0 0 0 2.809.265 13.588 13.588 0 0 0 3.352-.39 9.147 9.147 0 0 0 4.798-2.91 11.054 11.054 0 0 0 2.013-3.554q.926-2.596 1.037-6.146a12.602 12.602 0 0 0 .041-.574q.059-1.106.059-3.326a134.373 134.373 0 0 0-.005-1.178q-.014-1.6-.069-2.412a10.033 10.033 0 0 0-.026-.31 23.626 23.626 0 0 0-.389-3.703q-.378-1.974-1.111-3.548a10.688 10.688 0 0 0-1.6-2.499 9.479 9.479 0 0 0-5.789-3.166 13.908 13.908 0 0 0-2.311-.184q-5.3 0-8.2 3.35a11.284 11.284 0 0 0-2.074 3.662q-.573 1.617-.83 3.591a25.45 25.45 0 0 0-.196 2.497zm59.2.9l-.1 2.4a31.183 31.183 0 0 0 .457 5.596q1.752 9.558 10.237 9.984a16.08 16.08 0 0 0 .806.02 13.796 13.796 0 0 0 3.355-.383A8.937 8.937 0 0 0 330 56.401a14.591 14.591 0 0 0 2.794-6.3 18.981 18.981 0 0 0 .306-2.5 7.761 7.761 0 0 0 .039-.427q.061-.898.061-2.773a91.654 91.654 0 0 0-.005-.974q-.014-1.32-.069-1.976a6.354 6.354 0 0 0-.026-.25 17.579 17.579 0 0 0-.83-4.524 14.141 14.141 0 0 0-2.27-4.276 8.998 8.998 0 0 0-5.322-3.283 14.071 14.071 0 0 0-3.078-.317 12.59 12.59 0 0 0-4.954.904q-6.003 2.55-6.446 12.296zm-224.1 6.4v-2l-10 1.6q-7.395 1.157-10.035 4.01a5.263 5.263 0 0 0-1.465 3.69 6.138 6.138 0 0 0 .437 2.36q.58 1.405 1.926 2.39a7.283 7.283 0 0 0 .287.2 10.468 10.468 0 0 0 4.193 1.587 13.836 13.836 0 0 0 2.157.163 13.706 13.706 0 0 0 4.357-.665 11.447 11.447 0 0 0 4.643-2.935q3.039-3.126 3.439-8.663a24.086 24.086 0 0 0 .061-1.737zm100.3 0v-2l-10 1.6q-7.395 1.157-10.035 4.01a5.263 5.263 0 0 0-1.465 3.69 6.138 6.138 0 0 0 .437 2.36q.58 1.405 1.926 2.39a7.283 7.283 0 0 0 .287.2 10.468 10.468 0 0 0 4.193 1.587 13.836 13.836 0 0 0 2.157.163 13.706 13.706 0 0 0 4.357-.665 11.447 11.447 0 0 0 4.643-2.935q3.039-3.126 3.439-8.663a24.086 24.086 0 0 0 .061-1.737z" vector-effect="non-scaling-stroke" stroke-linecap="round" fill-rule="evenodd" font-size="12" stroke="##fff" stroke-width=".25mm" fill="#fff"/></svg>