<?xml version="1.0" encoding="UTF-8" standalone="no"?>

<svg xmlns="http://www.w3.org/2000/svg" width="500" height="115" viewBox="-5 -5 490 110">
  <g id="svgGroup" stroke-linecap="round" fill-rule="evenodd" font-size="9pt" stroke="#000" stroke-width="0.25mm" fill="none" style="stroke:#000;stroke-width:0.25mm;fill:#000">
    <path
      d="M 431.001 48.5 L 431.001 73.1 A 5.474 5.474 0 0 1 430.693 74.969 A 4.797 4.797 0 0 1 429.551 76.75 A 4.894 4.894 0 0 1 426.173 78.195 A 6.47 6.47 0 0 1 425.901 78.2 A 5.474 5.474 0 0 1 424.032 77.892 A 4.797 4.797 0 0 1 422.251 76.75 A 4.894 4.894 0 0 1 420.807 73.372 A 6.47 6.47 0 0 1 420.801 73.1 L 420.801 48.5 A 24.102 24.102 0 0 0 420.376 43.824 Q 419.836 41.095 418.608 38.99 A 12.392 12.392 0 0 0 416.451 36.25 A 14.688 14.688 0 0 0 408.937 32.468 A 21.114 21.114 0 0 0 404.901 32.1 A 17.971 17.971 0 0 0 399.827 32.798 A 15.971 15.971 0 0 0 397.251 33.8 Q 393.801 35.5 391.851 38.4 Q 389.901 41.3 389.901 44.9 L 389.901 73.1 A 5.675 5.675 0 0 1 389.618 74.925 A 4.819 4.819 0 0 1 388.501 76.75 A 4.677 4.677 0 0 1 385.665 78.145 A 6.537 6.537 0 0 1 384.801 78.2 A 5.474 5.474 0 0 1 382.932 77.892 A 4.797 4.797 0 0 1 381.151 76.75 A 4.894 4.894 0 0 1 379.707 73.372 A 6.47 6.47 0 0 1 379.701 73.1 L 379.701 28.5 A 5.926 5.926 0 0 1 379.922 26.841 A 4.556 4.556 0 0 1 381.151 24.8 A 4.939 4.939 0 0 1 384.329 23.417 A 6.549 6.549 0 0 1 384.801 23.4 A 6.13 6.13 0 0 1 386.453 23.612 A 4.59 4.59 0 0 1 388.501 24.8 A 4.702 4.702 0 0 1 389.824 27.471 A 6.626 6.626 0 0 1 389.901 28.5 L 389.901 29.6 Q 393.101 26.4 397.501 24.65 A 25.16 25.16 0 0 1 406.745 22.901 A 28.495 28.495 0 0 1 406.901 22.9 A 27.229 27.229 0 0 1 414.577 23.951 A 23.76 23.76 0 0 1 419.301 25.9 Q 424.801 28.9 427.901 34.65 A 25.033 25.033 0 0 1 430.408 41.863 Q 430.992 44.908 431.001 48.39 A 42.222 42.222 0 0 1 431.001 48.5 Z M 150.501 28.4 L 150.501 73 A 5.675 5.675 0 0 1 150.218 74.825 A 4.819 4.819 0 0 1 149.101 76.65 A 4.677 4.677 0 0 1 146.265 78.045 A 6.537 6.537 0 0 1 145.401 78.1 A 5.474 5.474 0 0 1 143.532 77.792 A 4.797 4.797 0 0 1 141.751 76.65 A 4.894 4.894 0 0 1 140.307 73.272 A 6.47 6.47 0 0 1 140.301 73 L 140.301 71.9 Q 137.101 75.1 132.701 76.85 A 25.16 25.16 0 0 1 123.457 78.6 A 28.495 28.495 0 0 1 123.301 78.6 A 27.229 27.229 0 0 1 115.624 77.55 A 23.76 23.76 0 0 1 110.901 75.6 Q 105.401 72.6 102.301 66.85 A 25.033 25.033 0 0 1 99.794 59.638 Q 99.21 56.592 99.201 53.111 A 42.222 42.222 0 0 1 99.201 53 L 99.201 28.4 A 5.474 5.474 0 0 1 99.509 26.531 A 4.797 4.797 0 0 1 100.651 24.75 A 4.894 4.894 0 0 1 104.029 23.306 A 6.47 6.47 0 0 1 104.301 23.3 A 5.474 5.474 0 0 1 106.17 23.608 A 4.797 4.797 0 0 1 107.951 24.75 A 4.894 4.894 0 0 1 109.395 28.128 A 6.47 6.47 0 0 1 109.401 28.4 L 109.401 53 A 24.102 24.102 0 0 0 109.826 57.677 Q 110.366 60.406 111.594 62.511 A 12.392 12.392 0 0 0 113.751 65.25 A 14.688 14.688 0 0 0 121.265 69.032 A 21.114 21.114 0 0 0 125.301 69.4 A 17.971 17.971 0 0 0 130.374 68.703 A 15.971 15.971 0 0 0 132.951 67.7 Q 136.401 66 138.351 63.1 Q 140.301 60.2 140.301 56.6 L 140.301 28.4 A 5.926 5.926 0 0 1 140.522 26.741 A 4.556 4.556 0 0 1 141.751 24.7 A 4.939 4.939 0 0 1 144.929 23.317 A 6.549 6.549 0 0 1 145.401 23.3 A 6.13 6.13 0 0 1 147.053 23.512 A 4.59 4.59 0 0 1 149.101 24.7 A 4.702 4.702 0 0 1 150.424 27.371 A 6.626 6.626 0 0 1 150.501 28.4 Z M 213.001 54.3 L 175.001 54.3 Q 176.101 61.3 181.351 65.6 A 18.882 18.882 0 0 0 191.434 69.749 A 24.721 24.721 0 0 0 194.201 69.9 A 18.159 18.159 0 0 0 198.246 69.427 A 22.468 22.468 0 0 0 200.451 68.8 Q 203.701 67.7 205.801 66.1 A 5.141 5.141 0 0 1 208.895 65.004 A 6.425 6.425 0 0 1 209.101 65 A 5.828 5.828 0 0 1 210.338 65.124 Q 211.142 65.298 211.748 65.719 A 3.441 3.441 0 0 1 212.101 66 A 6.001 6.001 0 0 1 213.088 67.028 A 3.904 3.904 0 0 1 213.901 69.4 A 3.505 3.505 0 0 1 212.698 72.071 A 5.082 5.082 0 0 1 212.301 72.4 A 23.954 23.954 0 0 1 208.223 74.987 A 32.783 32.783 0 0 1 203.851 76.8 A 33.493 33.493 0 0 1 198.387 78.163 A 26.851 26.851 0 0 1 194.201 78.5 Q 186.001 78.5 179.501 74.95 Q 173.001 71.4 169.351 65.1 A 27.265 27.265 0 0 1 165.799 53.38 A 33.349 33.349 0 0 1 165.701 50.8 A 31.806 31.806 0 0 1 166.854 42.102 A 27.472 27.472 0 0 1 169.151 36.45 Q 172.601 30.1 178.751 26.55 A 26.677 26.677 0 0 1 190.186 23.096 A 32.603 32.603 0 0 1 192.701 23 A 29.288 29.288 0 0 1 199.353 23.723 A 22.579 22.579 0 0 1 206.001 26.4 Q 211.601 29.8 214.601 35.9 Q 217.601 42 217.601 49.9 A 4.556 4.556 0 0 1 217.315 51.539 A 4.122 4.122 0 0 1 216.301 53.05 A 4.435 4.435 0 0 1 213.551 54.275 A 5.958 5.958 0 0 1 213.001 54.3 Z M 0.001 5.1 L 0.001 50.7 A 28.721 28.721 0 0 0 1.805 60.952 A 26.967 26.967 0 0 0 3.651 64.85 Q 7.301 71.2 13.551 74.85 A 26.94 26.94 0 0 0 26.544 78.486 A 31.929 31.929 0 0 0 27.501 78.5 Q 35.201 78.5 41.551 74.85 Q 47.901 71.2 51.501 64.85 A 27.944 27.944 0 0 0 55.085 51.73 A 33.192 33.192 0 0 0 55.101 50.7 A 31.355 31.355 0 0 0 53.726 41.302 A 28.142 28.142 0 0 0 51.751 36.55 Q 48.401 30.2 42.551 26.6 Q 36.701 23 29.501 23 Q 23.701 23 18.701 25.4 Q 13.701 27.8 10.201 32.1 L 10.201 5.1 A 5.926 5.926 0 0 0 9.98 3.441 A 4.556 4.556 0 0 0 8.751 1.4 A 4.939 4.939 0 0 0 5.573 0.017 A 6.549 6.549 0 0 0 5.101 0 A 6.13 6.13 0 0 0 3.449 0.212 A 4.59 4.59 0 0 0 1.401 1.4 A 4.702 4.702 0 0 0 0.078 4.071 A 6.626 6.626 0 0 0 0.001 5.1 Z M 240.801 69.4 L 240.801 96.4 A 6.13 6.13 0 0 1 240.589 98.052 A 4.59 4.59 0 0 1 239.401 100.1 A 4.702 4.702 0 0 1 236.731 101.423 A 6.626 6.626 0 0 1 235.701 101.5 A 5.675 5.675 0 0 1 233.876 101.218 A 4.819 4.819 0 0 1 232.051 100.1 A 4.677 4.677 0 0 1 230.656 97.264 A 6.537 6.537 0 0 1 230.601 96.4 L 230.601 50.8 A 28.721 28.721 0 0 1 232.405 40.548 A 26.967 26.967 0 0 1 234.251 36.65 Q 237.901 30.3 244.151 26.65 A 26.94 26.94 0 0 1 257.144 23.015 A 31.929 31.929 0 0 1 258.101 23 Q 265.801 23 272.151 26.65 Q 278.501 30.3 282.101 36.65 A 27.944 27.944 0 0 1 285.685 49.771 A 33.192 33.192 0 0 1 285.701 50.8 A 31.355 31.355 0 0 1 284.326 60.199 A 28.142 28.142 0 0 1 282.351 64.95 Q 279.001 71.3 273.151 74.9 Q 267.301 78.5 260.101 78.5 Q 254.301 78.5 249.301 76.1 Q 244.301 73.7 240.801 69.4 Z M 469.601 78.1 L 467.801 78.1 Q 462.901 78.1 458.851 75.55 Q 454.801 73 452.501 68.6 A 20.341 20.341 0 0 1 450.296 60.889 A 24.813 24.813 0 0 1 450.201 58.7 L 450.201 34 L 445.601 34 Q 443.501 34 442.201 32.8 A 3.894 3.894 0 0 1 440.904 29.968 A 4.871 4.871 0 0 1 440.901 29.8 A 4.981 4.981 0 0 1 441.099 28.36 A 3.873 3.873 0 0 1 442.201 26.6 A 4.438 4.438 0 0 1 444.454 25.501 A 6.282 6.282 0 0 1 445.601 25.4 L 450.201 25.4 L 450.201 11 A 5.644 5.644 0 0 1 450.45 9.286 A 4.598 4.598 0 0 1 451.601 7.4 A 4.726 4.726 0 0 1 454.59 6.029 A 6.414 6.414 0 0 1 455.201 6 A 5.644 5.644 0 0 1 456.915 6.249 A 4.598 4.598 0 0 1 458.801 7.4 A 4.726 4.726 0 0 1 460.172 10.389 A 6.414 6.414 0 0 1 460.201 11 L 460.201 25.4 L 468.701 25.4 Q 470.801 25.4 472.101 26.6 A 3.977 3.977 0 0 1 473.363 29.136 A 5.572 5.572 0 0 1 473.401 29.8 A 4.077 4.077 0 0 1 473.037 31.538 A 4.014 4.014 0 0 1 472.101 32.8 A 4.438 4.438 0 0 1 469.848 33.9 A 6.282 6.282 0 0 1 468.701 34 L 460.201 34 L 460.201 58.7 A 12.008 12.008 0 0 0 460.618 61.938 A 9.43 9.43 0 0 0 462.401 65.4 A 7.871 7.871 0 0 0 464.272 67.098 A 6.445 6.445 0 0 0 467.801 68.1 L 471.201 68.1 A 3.902 3.902 0 0 1 474.093 69.331 A 5.076 5.076 0 0 1 474.251 69.5 A 4.844 4.844 0 0 1 475.41 71.972 A 6.734 6.734 0 0 1 475.501 73.1 A 4.765 4.765 0 0 1 475.114 75.044 A 4.597 4.597 0 0 1 473.851 76.7 A 5.766 5.766 0 0 1 471.205 77.95 A 8.143 8.143 0 0 1 469.601 78.1 Z M 78.301 5 L 78.301 59.6 Q 78.301 62.614 79.23 64.765 A 8.689 8.689 0 0 0 79.701 65.7 A 6.348 6.348 0 0 0 80.552 66.86 Q 81.227 67.577 82.04 67.88 A 3.588 3.588 0 0 0 83.301 68.1 L 85.801 68.1 A 4.639 4.639 0 0 1 87.406 68.368 A 4.049 4.049 0 0 1 89.051 69.5 A 4.844 4.844 0 0 1 90.21 71.972 A 6.734 6.734 0 0 1 90.301 73.1 A 4.184 4.184 0 0 1 88.872 76.314 A 5.772 5.772 0 0 1 88.401 76.7 A 6.878 6.878 0 0 1 85.915 77.832 Q 84.813 78.1 83.501 78.1 L 83.301 78.1 Q 79.001 78.1 75.551 75.75 A 14.764 14.764 0 0 1 71.037 70.798 A 18.47 18.47 0 0 1 70.201 69.15 A 21.822 21.822 0 0 1 68.468 62.655 A 27.174 27.174 0 0 1 68.301 59.6 L 68.301 5 A 5.644 5.644 0 0 1 68.55 3.286 A 4.598 4.598 0 0 1 69.701 1.4 A 4.726 4.726 0 0 1 72.69 0.029 A 6.414 6.414 0 0 1 73.301 0 A 5.644 5.644 0 0 1 75.015 0.249 A 4.598 4.598 0 0 1 76.901 1.4 A 4.726 4.726 0 0 1 78.272 4.389 A 6.414 6.414 0 0 1 78.301 5 Z M 310.901 43.9 L 310.901 73.1 A 7.392 7.392 0 0 1 310.766 74.557 Q 310.491 75.927 309.651 76.8 A 3.93 3.93 0 0 1 308 77.805 Q 307.376 78.008 306.618 78.071 A 8.603 8.603 0 0 1 305.901 78.1 A 7.392 7.392 0 0 1 304.444 77.966 Q 303.074 77.69 302.201 76.85 A 3.93 3.93 0 0 1 301.196 75.199 Q 300.993 74.575 300.93 73.817 A 8.603 8.603 0 0 1 300.901 73.1 L 300.901 28.4 Q 300.901 26.542 301.68 25.343 A 3.956 3.956 0 0 1 302.201 24.7 A 4.215 4.215 0 0 1 304.072 23.632 Q 304.735 23.444 305.528 23.408 A 8.395 8.395 0 0 1 305.901 23.4 Q 309.869 23.4 310.688 26.549 A 7.366 7.366 0 0 1 310.901 28.4 L 310.901 30.3 Q 313.901 26.8 318.301 24.8 Q 322.701 22.8 327.701 22.8 A 28.539 28.539 0 0 1 330.789 22.957 Q 332.339 23.126 333.626 23.478 A 11.478 11.478 0 0 1 336.001 24.4 A 8.434 8.434 0 0 1 337.348 25.278 Q 339.001 26.619 339.001 28.4 A 7.84 7.84 0 0 1 338.995 28.725 Q 338.982 29.037 338.942 29.241 A 1.3 1.3 0 0 1 338.901 29.4 A 5.572 5.572 0 0 1 338.268 30.874 Q 337.271 32.452 335.283 32.588 A 5.622 5.622 0 0 1 334.901 32.6 A 3.711 3.711 0 0 1 334.58 32.584 Q 334.264 32.557 333.825 32.48 A 17.7 17.7 0 0 1 333.401 32.4 A 63.228 63.228 0 0 0 331.047 32.031 Q 328.698 31.711 327.012 31.701 A 18.217 18.217 0 0 0 326.901 31.7 A 25.608 25.608 0 0 0 322.088 32.126 Q 319.243 32.671 316.99 33.911 A 14.31 14.31 0 0 0 315.301 35 A 10.846 10.846 0 0 0 312.001 38.875 Q 310.97 40.961 310.905 43.552 A 13.985 13.985 0 0 0 310.901 43.9 Z M 360.701 28.5 L 360.701 73 A 5.675 5.675 0 0 1 360.418 74.825 A 4.819 4.819 0 0 1 359.301 76.65 A 4.677 4.677 0 0 1 356.465 78.045 A 6.537 6.537 0 0 1 355.601 78.1 A 5.474 5.474 0 0 1 353.732 77.792 A 4.797 4.797 0 0 1 351.951 76.65 A 4.894 4.894 0 0 1 350.507 73.272 A 6.47 6.47 0 0 1 350.501 73 L 350.501 28.5 A 5.926 5.926 0 0 1 350.722 26.841 A 4.556 4.556 0 0 1 351.951 24.8 A 4.939 4.939 0 0 1 355.129 23.417 A 6.549 6.549 0 0 1 355.601 23.4 A 6.13 6.13 0 0 1 357.253 23.612 A 4.59 4.59 0 0 1 359.301 24.8 A 4.702 4.702 0 0 1 360.624 27.471 A 6.626 6.626 0 0 1 360.701 28.5 Z M 20.67 68.179 A 17.527 17.527 0 0 0 27.501 69.5 A 20.23 20.23 0 0 0 27.812 69.498 A 17.079 17.079 0 0 0 36.551 67.05 Q 40.601 64.6 42.951 60.3 A 18.665 18.665 0 0 0 44.313 57.153 A 20.603 20.603 0 0 0 45.301 50.7 A 22.862 22.862 0 0 0 45.244 49.07 A 18.949 18.949 0 0 0 42.951 41.15 Q 40.601 36.9 36.551 34.45 A 16.818 16.818 0 0 0 34.332 33.322 A 17.527 17.527 0 0 0 27.501 32 A 20.23 20.23 0 0 0 27.189 32.003 A 17.079 17.079 0 0 0 18.451 34.45 Q 14.401 36.9 12.101 41.15 Q 9.801 45.4 9.801 50.7 Q 9.801 56 12.101 60.3 Q 14.401 64.6 18.451 67.05 A 16.818 16.818 0 0 0 20.67 68.179 Z M 258.101 69.5 A 17.527 17.527 0 0 0 264.932 68.179 A 16.818 16.818 0 0 0 267.151 67.05 Q 271.201 64.6 273.551 60.35 A 18.949 18.949 0 0 0 275.844 52.431 A 22.862 22.862 0 0 0 275.901 50.8 A 20.603 20.603 0 0 0 274.913 44.347 A 18.665 18.665 0 0 0 273.551 41.2 Q 271.201 36.9 267.151 34.45 A 17.079 17.079 0 0 0 258.412 32.003 A 20.23 20.23 0 0 0 258.101 32 A 17.527 17.527 0 0 0 251.27 33.322 A 16.818 16.818 0 0 0 249.051 34.45 Q 245.001 36.9 242.701 41.2 Q 240.401 45.5 240.401 50.8 Q 240.401 56.1 242.701 60.35 Q 245.001 64.6 249.051 67.05 A 17.079 17.079 0 0 0 257.789 69.498 A 20.23 20.23 0 0 0 258.101 69.5 Z M 175.101 46.3 L 208.401 46.3 A 21.346 21.346 0 0 0 207.09 41.171 A 16.017 16.017 0 0 0 203.401 35.6 A 13.872 13.872 0 0 0 195.516 31.799 A 19.3 19.3 0 0 0 192.701 31.6 A 21.711 21.711 0 0 0 187.466 32.198 A 15.5 15.5 0 0 0 180.851 35.6 A 17.248 17.248 0 0 0 175.697 43.786 A 22.554 22.554 0 0 0 175.101 46.3 Z M 360.19 3.19 A 6.337 6.337 0 0 0 355.601 1.3 A 6.507 6.507 0 0 0 353.382 1.674 A 6.568 6.568 0 0 0 350.951 3.25 A 7.91 7.91 0 0 0 350.89 3.311 A 6.337 6.337 0 0 0 349.001 7.9 A 6.507 6.507 0 0 0 349.374 10.119 A 6.568 6.568 0 0 0 350.951 12.55 A 7.91 7.91 0 0 0 351.012 12.611 A 6.337 6.337 0 0 0 355.601 14.5 A 6.507 6.507 0 0 0 357.82 14.127 A 6.568 6.568 0 0 0 360.251 12.55 A 7.91 7.91 0 0 0 360.311 12.489 A 6.337 6.337 0 0 0 362.201 7.9 A 6.507 6.507 0 0 0 361.828 5.681 A 6.568 6.568 0 0 0 360.251 3.25 A 7.91 7.91 0 0 0 360.19 3.19 Z"/>
  </g>
</svg>
