<?xml version="1.0" encoding="UTF-8" standalone="no"?>
<!-- Using Google Font "Rubik" -->
<svg xmlns="http://www.w3.org/2000/svg" width="370" height="115" viewBox="-5 -5 360 110">
  <g id="svgGroup" stroke-linecap="round" fill-rule="evenodd" font-size="9pt" stroke="#000" stroke-width="0.25mm"
     fill="#000" style="stroke:#000;stroke-width:0.25mm;fill:#000">
    <path d="M 299.9 74.501 L 308.8 74.501 A 3.015 3.015 0 0 1 309.601 74.603 A 2.441 2.441 0 0 1 310.35 74.951 Q 311 75.401 311.4 76.601 Q 312.5 79.201 314.7 81.051 Q 316.269 82.37 319.06 82.749 A 18.217 18.217 0 0 0 321.5 82.901 A 21.646 21.646 0 0 0 324.622 82.691 Q 328.288 82.155 330.3 80.251 A 7.494 7.494 0 0 0 332.047 77.61 Q 333.1 75.048 333.1 71.001 L 333.1 64.201 Q 327.7 70.601 317.8 70.601 Q 309.389 70.601 304.347 66.48 A 16.195 16.195 0 0 1 302.15 64.301 A 22.611 22.611 0 0 1 297.983 56.445 Q 297.014 53.333 296.664 49.633 A 44.144 44.144 0 0 1 296.5 47.101 L 296.4 44.401 L 296.5 41.701 Q 296.851 32.311 300.976 26.155 A 21.966 21.966 0 0 1 302.2 24.501 A 17.076 17.076 0 0 1 312.056 18.589 A 26.462 26.462 0 0 1 317.8 18.001 A 23.872 23.872 0 0 1 322.483 18.44 A 18.284 18.284 0 0 1 327.1 20.001 Q 331.1 22.001 333.7 25.401 L 333.7 21.501 A 2.633 2.633 0 0 1 333.844 20.615 A 2.281 2.281 0 0 1 334.45 19.701 Q 335.2 19.001 336.2 19.001 L 344.4 19.001 A 2.312 2.312 0 0 1 346.078 19.679 A 2.755 2.755 0 0 1 346.1 19.701 A 2.363 2.363 0 0 1 346.786 21.195 A 3.207 3.207 0 0 1 346.8 21.501 L 346.9 69.701 A 31.93 31.93 0 0 1 346.2 76.594 Q 344.817 82.85 340.7 86.901 A 19.372 19.372 0 0 1 333.216 91.379 Q 330.16 92.418 326.416 92.791 A 44.536 44.536 0 0 1 322 93.001 Q 313.1 93.001 307.6 90.051 A 28.205 28.205 0 0 1 304.197 87.922 Q 302.483 86.659 301.254 85.266 A 13.684 13.684 0 0 1 299.8 83.301 A 22.683 22.683 0 0 1 298.637 81.141 Q 297.5 78.699 297.5 76.801 A 2.336 2.336 0 0 1 297.654 75.94 A 2.134 2.134 0 0 1 298.2 75.151 Q 298.9 74.501 299.9 74.501 Z M 0 68.601 L 0 2.401 A 2.8 2.8 0 0 1 0.099 1.639 A 2.1 2.1 0 0 1 0.7 0.651 Q 1.4 0.001 2.4 0.001 L 10.7 0.001 A 2.312 2.312 0 0 1 12.378 0.679 A 2.755 2.755 0 0 1 12.4 0.701 A 2.311 2.311 0 0 1 13.1 2.369 A 2.839 2.839 0 0 1 13.1 2.401 L 13.1 36.601 L 29.7 20.701 Q 30 20.501 30.65 19.951 Q 31.176 19.505 31.67 19.289 A 2.725 2.725 0 0 1 31.9 19.201 Q 32.367 19.045 33.014 19.011 A 7.237 7.237 0 0 1 33.4 19.001 L 42.9 19.001 Q 43.9 19.001 44.5 19.601 A 2.008 2.008 0 0 1 45.058 20.698 A 2.864 2.864 0 0 1 45.1 21.201 A 1.812 1.812 0 0 1 44.88 22.044 Q 44.733 22.327 44.487 22.61 A 4.518 4.518 0 0 1 44.1 23.001 L 23.7 42.301 L 46.6 67.101 A 4.519 4.519 0 0 1 47.035 67.598 Q 47.5 68.225 47.5 68.801 A 2.705 2.705 0 0 1 47.416 69.494 A 1.97 1.97 0 0 1 46.9 70.401 A 2.024 2.024 0 0 1 45.458 71 A 2.657 2.657 0 0 1 45.4 71.001 L 35.7 71.001 Q 34.519 71.001 33.871 70.751 A 1.927 1.927 0 0 1 33.65 70.651 Q 33 70.301 32 69.301 L 13.1 49.201 L 13.1 68.601 A 2.312 2.312 0 0 1 12.422 70.279 A 2.755 2.755 0 0 1 12.4 70.301 A 2.311 2.311 0 0 1 10.731 71 A 2.839 2.839 0 0 1 10.7 71.001 L 2.4 71.001 A 2.312 2.312 0 0 1 0.722 70.322 A 2.755 2.755 0 0 1 0.7 70.301 A 2.311 2.311 0 0 1 0 68.632 A 2.839 2.839 0 0 1 0 68.601 Z M 72.3 40.001 L 86 38.001 L 86 35.901 A 13.407 13.407 0 0 0 85.785 33.418 Q 85.521 32.019 84.933 30.929 A 6.546 6.546 0 0 0 83.8 29.401 A 6.624 6.624 0 0 0 81.377 27.897 Q 80.329 27.508 79.023 27.336 A 17.091 17.091 0 0 0 76.8 27.201 Q 74.388 27.201 72.671 27.842 A 7.083 7.083 0 0 0 71.5 28.401 A 21.405 21.405 0 0 0 69.946 29.422 Q 69.216 29.951 68.627 30.49 A 11.742 11.742 0 0 0 68.25 30.851 L 66.6 32.501 A 2.319 2.319 0 0 1 66.338 33.053 Q 65.908 33.701 65.1 33.701 L 57.3 33.701 Q 56.4 33.701 55.75 33.101 Q 55.1 32.501 55.1 31.501 A 6.967 6.967 0 0 1 55.522 29.448 Q 55.838 28.557 56.391 27.597 A 17.761 17.761 0 0 1 57.55 25.851 A 14.568 14.568 0 0 1 60.094 23.247 Q 62.044 21.672 64.8 20.351 Q 69.049 18.313 75.028 18.042 A 41.402 41.402 0 0 1 76.9 18.001 A 41.699 41.699 0 0 1 83.031 18.42 Q 86.176 18.889 88.688 19.881 A 16.017 16.017 0 0 1 94.1 23.301 A 17.777 17.777 0 0 1 99.306 34.06 A 24.671 24.671 0 0 1 99.5 37.201 L 99.5 68.601 Q 99.5 69.601 98.85 70.301 A 2.151 2.151 0 0 1 97.544 70.969 A 3.054 3.054 0 0 1 97.1 71.001 L 88.8 71.001 A 2.312 2.312 0 0 1 87.122 70.322 A 2.755 2.755 0 0 1 87.1 70.301 A 2.311 2.311 0 0 1 86.4 68.632 A 2.839 2.839 0 0 1 86.4 68.601 L 86.4 64.701 A 15.283 15.283 0 0 1 82.531 68.552 A 19.678 19.678 0 0 1 80.2 69.951 A 17.333 17.333 0 0 1 76.011 71.422 Q 74.043 71.856 71.759 71.964 A 32.868 32.868 0 0 1 70.2 72.001 A 22.067 22.067 0 0 1 63.589 71.032 A 20.038 20.038 0 0 1 60.85 69.951 A 18.249 18.249 0 0 1 56.538 67.096 A 15.825 15.825 0 0 1 54.15 64.401 Q 51.7 60.901 51.7 56.701 A 13.533 13.533 0 0 1 53.118 50.465 Q 54.493 47.768 57.2 45.701 Q 61.637 42.313 68.741 40.682 A 51.312 51.312 0 0 1 72.3 40.001 Z M 172.6 40.001 L 186.3 38.001 L 186.3 35.901 A 13.407 13.407 0 0 0 186.085 33.418 Q 185.821 32.019 185.233 30.929 A 6.546 6.546 0 0 0 184.1 29.401 A 6.624 6.624 0 0 0 181.677 27.897 Q 180.629 27.508 179.323 27.336 A 17.091 17.091 0 0 0 177.1 27.201 Q 174.688 27.201 172.971 27.842 A 7.083 7.083 0 0 0 171.8 28.401 A 21.405 21.405 0 0 0 170.246 29.422 Q 169.516 29.951 168.927 30.49 A 11.742 11.742 0 0 0 168.55 30.851 L 166.9 32.501 A 2.319 2.319 0 0 1 166.638 33.053 Q 166.208 33.701 165.4 33.701 L 157.6 33.701 Q 156.7 33.701 156.05 33.101 Q 155.4 32.501 155.4 31.501 A 6.967 6.967 0 0 1 155.822 29.448 Q 156.138 28.557 156.691 27.597 A 17.761 17.761 0 0 1 157.85 25.851 A 14.568 14.568 0 0 1 160.394 23.247 Q 162.344 21.672 165.1 20.351 Q 169.349 18.313 175.328 18.042 A 41.402 41.402 0 0 1 177.2 18.001 A 41.699 41.699 0 0 1 183.331 18.42 Q 186.476 18.889 188.988 19.881 A 16.017 16.017 0 0 1 194.4 23.301 A 17.777 17.777 0 0 1 199.606 34.06 A 24.671 24.671 0 0 1 199.8 37.201 L 199.8 68.601 Q 199.8 69.601 199.15 70.301 A 2.151 2.151 0 0 1 197.844 70.969 A 3.054 3.054 0 0 1 197.4 71.001 L 189.1 71.001 A 2.312 2.312 0 0 1 187.422 70.322 A 2.755 2.755 0 0 1 187.4 70.301 A 2.311 2.311 0 0 1 186.7 68.632 A 2.839 2.839 0 0 1 186.7 68.601 L 186.7 64.701 A 15.283 15.283 0 0 1 182.831 68.552 A 19.678 19.678 0 0 1 180.5 69.951 A 17.333 17.333 0 0 1 176.311 71.422 Q 174.343 71.856 172.059 71.964 A 32.868 32.868 0 0 1 170.5 72.001 A 22.067 22.067 0 0 1 163.889 71.032 A 20.038 20.038 0 0 1 161.15 69.951 A 18.249 18.249 0 0 1 156.838 67.096 A 15.825 15.825 0 0 1 154.45 64.401 Q 152 60.901 152 56.701 A 13.533 13.533 0 0 1 153.418 50.465 Q 154.793 47.768 157.5 45.701 Q 161.937 42.313 169.041 40.682 A 51.312 51.312 0 0 1 172.6 40.001 Z M 117.6 52.301 L 117.6 29.701 L 109.7 29.701 A 2.312 2.312 0 0 1 108.022 29.022 A 2.755 2.755 0 0 1 108 29.001 A 2.311 2.311 0 0 1 107.3 27.332 A 2.839 2.839 0 0 1 107.3 27.301 L 107.3 21.401 A 2.312 2.312 0 0 1 107.978 19.723 A 2.755 2.755 0 0 1 108 19.701 A 2.311 2.311 0 0 1 109.669 19.001 A 2.839 2.839 0 0 1 109.7 19.001 L 117.6 19.001 L 117.6 2.401 A 2.8 2.8 0 0 1 117.699 1.639 A 2.1 2.1 0 0 1 118.3 0.651 Q 119 0.001 120 0.001 L 128.3 0.001 A 3.009 3.009 0 0 1 129.055 0.09 A 2.135 2.135 0 0 1 130.05 0.651 A 2.17 2.17 0 0 1 130.646 1.802 A 3.144 3.144 0 0 1 130.7 2.401 L 130.7 19.001 L 143.2 19.001 A 2.312 2.312 0 0 1 144.878 19.679 A 2.755 2.755 0 0 1 144.9 19.701 A 2.311 2.311 0 0 1 145.6 21.369 A 2.839 2.839 0 0 1 145.6 21.401 L 145.6 27.301 A 2.312 2.312 0 0 1 144.922 28.979 A 2.755 2.755 0 0 1 144.9 29.001 A 2.311 2.311 0 0 1 143.231 29.7 A 2.839 2.839 0 0 1 143.2 29.701 L 130.7 29.701 L 130.7 51.201 A 19.753 19.753 0 0 0 130.832 53.569 Q 131.145 56.154 132.2 57.701 A 4.805 4.805 0 0 0 135.073 59.664 Q 135.913 59.882 136.927 59.899 A 10.287 10.287 0 0 0 137.1 59.901 L 144.1 59.901 A 3.009 3.009 0 0 1 144.855 59.99 A 2.135 2.135 0 0 1 145.85 60.551 A 2.17 2.17 0 0 1 146.446 61.702 A 3.144 3.144 0 0 1 146.5 62.301 L 146.5 68.601 Q 146.5 69.601 145.85 70.301 A 2.151 2.151 0 0 1 144.544 70.969 A 3.054 3.054 0 0 1 144.1 71.001 L 135.9 71.001 Q 129.549 71.001 125.39 68.687 A 13.641 13.641 0 0 1 122.2 66.251 A 15.102 15.102 0 0 1 118.714 60.279 Q 117.6 56.829 117.6 52.301 Z M 237.2 49.401 L 237.1 45.001 L 237.2 40.601 A 28.958 28.958 0 0 1 238.419 33.351 A 20.98 20.98 0 0 1 244.2 24.051 A 21.454 21.454 0 0 1 253.273 19.118 Q 257.316 18.001 262.3 18.001 Q 271.648 18.001 277.692 21.998 A 20.075 20.075 0 0 1 280.3 24.051 A 21.379 21.379 0 0 1 286.578 35.191 A 30.516 30.516 0 0 1 287.3 40.601 Q 287.4 41.801 287.4 45.001 A 161.461 161.461 0 0 1 287.394 46.433 Q 287.376 48.491 287.3 49.401 Q 286.8 60.001 280.4 66.001 Q 274 72.001 262.3 72.001 A 37.212 37.212 0 0 1 255.138 71.355 Q 250.979 70.538 247.75 68.69 A 19.401 19.401 0 0 1 244.1 66.001 A 21.104 21.104 0 0 1 238.089 55.576 A 30.742 30.742 0 0 1 237.2 49.401 Z M 212.7 68.601 L 212.7 2.401 A 2.8 2.8 0 0 1 212.799 1.639 A 2.1 2.1 0 0 1 213.4 0.651 Q 214.1 0.001 215.1 0.001 L 223.5 0.001 A 3.009 3.009 0 0 1 224.255 0.09 A 2.135 2.135 0 0 1 225.25 0.651 A 2.17 2.17 0 0 1 225.846 1.802 A 3.144 3.144 0 0 1 225.9 2.401 L 225.9 68.601 Q 225.9 69.601 225.25 70.301 A 2.151 2.151 0 0 1 223.944 70.969 A 3.054 3.054 0 0 1 223.5 71.001 L 215.1 71.001 A 2.312 2.312 0 0 1 213.422 70.322 A 2.755 2.755 0 0 1 213.4 70.301 A 2.311 2.311 0 0 1 212.7 68.632 A 2.839 2.839 0 0 1 212.7 68.601 Z M 251 41.101 L 250.9 45.001 L 251 48.901 A 23.52 23.52 0 0 0 251.389 52.598 Q 251.759 54.523 252.468 56.059 A 10.472 10.472 0 0 0 254.1 58.601 A 9.446 9.446 0 0 0 259.491 61.636 A 14.164 14.164 0 0 0 262.3 61.901 A 13.588 13.588 0 0 0 265.652 61.511 A 9.147 9.147 0 0 0 270.45 58.601 A 11.054 11.054 0 0 0 272.463 55.047 Q 273.389 52.451 273.5 48.901 A 12.602 12.602 0 0 0 273.541 48.327 Q 273.6 47.221 273.6 45.001 A 134.373 134.373 0 0 0 273.595 43.823 Q 273.581 42.223 273.526 41.411 A 10.033 10.033 0 0 0 273.5 41.101 A 23.626 23.626 0 0 0 273.111 37.398 Q 272.733 35.424 272 33.85 A 10.688 10.688 0 0 0 270.4 31.351 A 9.479 9.479 0 0 0 264.611 28.185 A 13.908 13.908 0 0 0 262.3 28.001 Q 257 28.001 254.1 31.351 A 11.284 11.284 0 0 0 252.026 35.013 Q 251.453 36.63 251.196 38.604 A 25.45 25.45 0 0 0 251 41.101 Z M 310.2 42.001 L 310.1 44.401 A 31.183 31.183 0 0 0 310.557 49.997 Q 312.309 59.555 320.794 59.981 A 16.08 16.08 0 0 0 321.6 60.001 A 13.796 13.796 0 0 0 324.955 59.618 A 8.937 8.937 0 0 0 330 56.401 A 14.591 14.591 0 0 0 332.794 50.101 A 18.981 18.981 0 0 0 333.1 47.601 A 7.761 7.761 0 0 0 333.139 47.174 Q 333.2 46.276 333.2 44.401 A 91.654 91.654 0 0 0 333.195 43.427 Q 333.181 42.107 333.126 41.451 A 6.354 6.354 0 0 0 333.1 41.201 A 17.579 17.579 0 0 0 332.27 36.677 A 14.141 14.141 0 0 0 330 32.401 A 8.998 8.998 0 0 0 324.678 29.118 A 14.071 14.071 0 0 0 321.6 28.801 A 12.59 12.59 0 0 0 316.646 29.705 Q 310.643 32.255 310.2 42.001 Z M 86.1 48.401 L 86.1 46.401 L 76.1 48.001 Q 68.705 49.158 66.065 52.011 A 5.263 5.263 0 0 0 64.6 55.701 A 6.138 6.138 0 0 0 65.037 58.061 Q 65.617 59.466 66.963 60.451 A 7.283 7.283 0 0 0 67.25 60.651 A 10.468 10.468 0 0 0 71.443 62.238 A 13.836 13.836 0 0 0 73.6 62.401 A 13.706 13.706 0 0 0 77.957 61.736 A 11.447 11.447 0 0 0 82.6 58.801 Q 85.639 55.675 86.039 50.138 A 24.086 24.086 0 0 0 86.1 48.401 Z M 186.4 48.401 L 186.4 46.401 L 176.4 48.001 Q 169.005 49.158 166.365 52.011 A 5.263 5.263 0 0 0 164.9 55.701 A 6.138 6.138 0 0 0 165.337 58.061 Q 165.917 59.466 167.263 60.451 A 7.283 7.283 0 0 0 167.55 60.651 A 10.468 10.468 0 0 0 171.743 62.238 A 13.836 13.836 0 0 0 173.9 62.401 A 13.706 13.706 0 0 0 178.257 61.736 A 11.447 11.447 0 0 0 182.9 58.801 Q 185.939 55.675 186.339 50.138 A 24.086 24.086 0 0 0 186.4 48.401 Z"
          vector-effect="non-scaling-stroke"/>
  </g>
</svg>
